<?xml version="1.0" encoding="UTF-8" standalone="no"?>
<!-- Created with Inkscape (http://www.inkscape.org/) -->

<svg
   width="312.36099mm"
   height="312.36099mm"
   viewBox="0 0 312.36099 312.36099"
   version="1.1"
   id="svg5"
   xml:space="preserve"
   xmlns="http://www.w3.org/2000/svg"
   xmlns:svg="http://www.w3.org/2000/svg"><defs
     id="defs2" /><g
     id="layer1"
     transform="translate(327.3703,15.361187)"><path
       style="fill:#ffffff;stroke-width:0.264583"
       d="m -229.23858,293.03122 c -4.95964,-2.8734 -6.92762,-4.14589 -6.84979,-4.4291 0.12101,-0.44032 98.25242,-170.40651 98.56822,-170.72275 0.14362,-0.14383 14.0119,7.60021 14.51918,8.10749 0.1702,0.17019 -98.64113,170.95562 -98.94278,171.01264 -0.18471,0.0349 -3.46738,-1.7508 -7.29483,-3.96828 z m -36.82464,-21.25067 c -3.85361,-2.22837 -7.04781,-4.17534 -7.09823,-4.3266 -0.085,-0.25511 97.84499,-170.156135 98.48337,-170.861035 0.21908,-0.2419 2.00857,0.677 7.47116,3.836465 6.6134,3.82506 7.16107,4.19652 6.90557,4.68372 -0.96015,1.83085 -98.22767,170.18416 -98.46334,170.42308 -0.21449,0.21743 -2.15125,-0.77915 -7.29853,-3.75563 z m 34.78781,-18.12798 c -3.20146,-1.87523 -5.80541,-3.5597 -5.78655,-3.74325 0.0298,-0.29003 95.93579,-166.506585 96.26095,-166.831745 0.0677,-0.0677 2.87356,1.46583 6.23524,3.40783 4.66571,2.69533 6.08503,3.63467 5.99751,3.96932 -0.063,0.24112 -21.70967,37.837125 -48.1036,83.546675 -31.37338,54.33306 -48.12638,83.10004 -48.38585,83.08451 -0.21828,-0.013 -3.01625,-1.55808 -6.2177,-3.43334 z m 130.42869,-85.47675 c -5.08724,-8.899 -9.28803,-16.34041 -9.33508,-16.53646 -0.0695,-0.28942 0.86286,-0.35646 4.95688,-0.35646 h 5.04243 l -0.15161,-1.52136 c -0.0834,-0.83674 -2.20034,-25.00193 -4.70435,-53.700425 -2.504,-28.69849 -4.61594,-52.24227 -4.69319,-52.31952 -0.18405,-0.18405 -98.10628,45.43213 -98.11866,45.70769 -0.005,0.11615 1.1216,2.16118 2.50405,4.54451 1.38245,2.38334 2.51354,4.40166 2.51354,4.48518 0,0.0835 -8.58242,0.15183 -19.07204,0.15183 -12.47976,0 -19.04157,-0.0906 -18.98386,-0.26215 0.31407,-0.93356 18.92268,-32.51641 19.12287,-32.45566 0.13709,0.0416 1.39811,2.06723 2.80227,4.50139 1.40416,2.43417 2.66465,4.53739 2.80109,4.67383 0.15439,0.15439 22.92872,-10.33011 60.30086,-27.76038 47.77912,-22.28407 60.073799,-27.92033 60.155679,-27.57723 0.0566,0.23718 2.67907,29.89921 5.82771,65.91562 l 5.7248,65.484385 5.87959,0.13229 5.8796,0.13229 -9.41083,16.47031 c -5.17595,9.05867 -9.49663,16.47032 -9.60152,16.47032 -0.10488,0 -4.35299,-7.28101 -9.440229,-16.18 z M -75.435841,54.705535 c -3.20146,-1.87628 -5.89276,-3.44652 -5.98068,-3.48943 -0.0879,-0.0429 -1.07555,-10.7341 -2.19474,-23.75822 -1.11918,-13.02411 -2.11881,-23.9975898 -2.22139,-24.3854998 l -0.18652,-0.7053 -22.147169,10.3274798 -22.14716,10.32747 -5.89867,-3.37957 c -3.24426,-1.85877 -6.03877,-3.50984 -6.21002,-3.66906 -0.22995,-0.2138 8.36785,-4.33592 32.88757,-15.76759982 18.259409,-8.51296998 33.364839,-15.51532018 33.567619,-15.56077018 0.23813,-0.0534 0.41934,0.22772 0.51169,0.79375 0.19373,1.18743 6.23718,70.83699 6.23718,71.88225 0,0.45569 -0.0893,0.82119 -0.19844,0.81222 -0.10914,-0.009 -2.81781,-1.55144 -6.01927,-3.42772 z"
       id="path388" /><path
       style="fill:#000000;stroke-width:0.264583"
       id="path276"
       d="" /></g></svg>
